{"accessors" : [{"bufferView" : 0, "byteOffset" : 0, "componentType" : 5125, "count" : 66048, "type" : "SCALAR", "max" : [66047], "min" : [0]}, {"bufferView" : 1, "byteOffset" : 0, "componentType" : 5126, "count" : 66048, "type" : "VEC3", "max" : [0.15813197195529938, 0.09382784366607666, 0.09087900817394257], "min" : [-0.15813197195529938, -0.09382784366607666, -0.09087900817394257], "name" : "POSITION"}, {"bufferView" : 1, "byteOffset" : 12, "componentType" : 5126, "count" : 66048, "type" : "VEC3", "max" : [0.9996278882026672, 0.9999517798423767, 1.0000041723251343], "min" : [-0.9996278882026672, -0.9999517798423767, -1.0000041723251343], "name" : "NORMAL"}, {"bufferView" : 1, "byteOffset" : 24, "componentType" : 5126, "count" : 66048, "type" : "VEC2", "max" : [0.5000000596046448, 0.5], "min" : [0.25, 0.24999988079071045], "name" : "TEXCOORD_0"}, {"bufferView" : 0, "byteOffset" : 264192, "componentType" : 5123, "count" : 8448, "type" : "SCALAR", "max" : [8447], "min" : [0]}, {"bufferView" : 2, "byteOffset" : 0, "componentType" : 5126, "count" : 8448, "type" : "VEC3", "max" : [0.12255939841270447, 0.07045596837997437, 0.07040302455425262], "min" : [-0.12255939841270447, -0.07045596837997437, -0.07040302455425262], "name" : "POSITION"}, {"bufferView" : 2, "byteOffset" : 12, "componentType" : 5126, "count" : 8448, "type" : "VEC3", "max" : [0.6733993291854858, 0.9990072250366211, 0.99969881772995], "min" : [-0.6733993291854858, -0.9990072250366211, -0.99969881772995], "name" : "NORMAL"}, {"bufferView" : 2, "byteOffset" : 24, "componentType" : 5126, "count" : 8448, "type" : "VEC2", "max" : [0.5000000596046448, 0.445178747177124], "min" : [0.25, 0.3877977728843689], "name" : "TEXCOORD_0"}, {"bufferView" : 0, "byteOffset" : 281088, "componentType" : 5123, "count" : 7494, "type" : "SCALAR", "max" : [7493], "min" : [0]}, {"bufferView" : 3, "byteOffset" : 0, "componentType" : 5126, "count" : 7494, "type" : "VEC3", "max" : [4.214750289916992, 0.04833809658885002, 0.3163447082042694], "min" : [-3.82893967628479, -1.5514835119247437, -0.4169647991657257], "name" : "POSITION"}, {"bufferView" : 3, "byteOffset" : 12, "componentType" : 5126, "count" : 7494, "type" : "VEC3", "max" : [0.9996135830879211, 0.9997231364250183, 0.9943230748176575], "min" : [-0.9996735453605652, -0.9999688863754272, -0.9982216358184814], "name" : "NORMAL"}, {"bufferView" : 3, "byteOffset" : 24, "componentType" : 5126, "count" : 7494, "type" : "VEC2", "max" : [1.0000001192092896, 1], "min" : [-0.0005648327060043812, 0], "name" : "TEXCOORD_0"}], "asset" : {"generator" : "Aspose.3D 24.6.0", "version" : "2.0"}, "buffers" : [{"uri" : "buffer.bin", "byteLength" : 2919772}], "bufferViews" : [{"buffer" : 0, "byteOffset" : 0, "byteLength" : 296076, "target" : 34963}, {"buffer" : 0, "byteOffset" : 296080, "byteLength" : 2113536, "byteStride" : 32, "target" : 34962}, {"buffer" : 0, "byteOffset" : 2409620, "byteLength" : 270336, "byteStride" : 32, "target" : 34962}, {"buffer" : 0, "byteOffset" : 2679960, "byteLength" : 239808, "byteStride" : 32, "target" : 34962}], "materials" : [{"name" : "Material.001", "pbrMetallicRoughness" : {"baseColorFactor" : [0.800000011920929, 0.800000011920929, 0.800000011920929, 1], "metallicFactor" : 1, "roughnessFactor" : 1}, "emissiveFactor" : [0, 0, 0], "alphaMode" : "OPAQUE", "doubleSided" : false}, {"name" : "Material.002", "pbrMetallicRoughness" : {"baseColorFactor" : [0.800000011920929, 0.800000011920929, 0.800000011920929, 1], "metallicFactor" : 1, "roughnessFactor" : 1}, "emissiveFactor" : [0, 0, 0], "alphaMode" : "OPAQUE", "doubleSided" : false}, {"name" : "Material.003", "pbrMetallicRoughness" : {"baseColorFactor" : [0.8000000715255737, 0.7009735107421875, 0.5799106359481812, 1], "metallicFactor" : 1, "roughnessFactor" : 1}, "emissiveFactor" : [0, 0, 0], "alphaMode" : "OPAQUE", "doubleSided" : false}], "meshes" : [{"primitives" : [{"attributes" : {"POSITION" : 1, "NORMAL" : 2, "TEXCOORD_0" : 3}, "indices" : 0, "material" : 0, "mode" : 4}, {"attributes" : {"POSITION" : 5, "NORMAL" : 6, "TEXCOORD_0" : 7}, "indices" : 4, "material" : 1, "mode" : 4}], "name" : "Mesh"}, {"primitives" : [{"attributes" : {"POSITION" : 9, "NORMAL" : 10, "TEXCOORD_0" : 11}, "indices" : 8, "material" : 2, "mode" : 4}], "name" : "BezierCurve"}], "nodes" : [{"matrix" : [0.026603698730468736, 8.149071572161219E-10, 3.492457489927357E-10, 0, -3.492460048055035E-10, 8.35133941384902E-09, 0.026603698730467435, 0, 8.149071046374105E-10, -0.026603700593112577, 8.351340009261899E-09, 0, -7.450580596923828E-09, -0.0013914676383137703, 0.09391683340072632, 1], "mesh" : 1, "name" : "American Football ball 2"}, {"children" : [0], "matrix" : [75.73300449914925, -63.33384567152737, 15.916580910043377, 0, 64.77327942358976, 75.95185019687314, -5.9781873829198835, 0, -8.302721084759707, 14.837151215233627, 98.54401943499654, 0, -0.42713499069213867, 0, 0, 1], "mesh" : 0, "name" : "American Football ball 1"}], "scene" : 0, "scenes" : [{"nodes" : [1]}]}